<svg width="24" height="24" viewBox="0 0 24 24" fill="none" xmlns="http://www.w3.org/2000/svg">
<path fill-rule="evenodd" clip-rule="evenodd" d="M11 3.42183L7.71875 6.70308C7.32827 7.09356 6.69517 7.09356 6.30469 6.70308C5.91421 6.3126 5.91421 5.6795 6.30469 5.28902L11.2219 0.371803C11.4052 0.145021 11.6857 0 12 0C12.3033 0 12.5751 0.135049 12.7585 0.348299L17.7051 5.29488C18.0956 5.68536 18.0956 6.31846 17.7051 6.70894C17.3146 7.09942 16.6815 7.09942 16.291 6.70894L13 3.41792V17C13 17.5523 12.5523 18 12 18C11.4477 18 11 17.5523 11 17V3.42183ZM0 18C0 14.6863 2.68629 12 6 12H7C7.55228 12 8 12.4477 8 13C8 13.5523 7.55228 14 7 14H6C3.79086 14 2 15.7909 2 18C2 20.2091 3.79086 22 6 22H18C20.2091 22 22 20.2091 22 18C22 15.7909 20.2091 14 18 14H17C16.4477 14 16 13.5523 16 13C16 12.4477 16.4477 12 17 12H18C21.3137 12 24 14.6863 24 18C24 21.3137 21.3137 24 18 24H6C2.68629 24 0 21.3137 0 18Z" fill="#B7BFCA"/>
</svg>
